<svg width="507px" height="148px" viewBox="0 0 507 148" version="1.1" xmlns="http://www.w3.org/2000/svg" xmlns:xlink="http://www.w3.org/1999/xlink">
    <defs>
        <polygon id="path-1" points="0.0005 0.2927 72.6525 0.2927 72.6525 82 0.0005 82"></polygon>
    </defs>
    <g id="Second_Draft" stroke="none" stroke-width="1" fill="none" fill-rule="evenodd">
        <g id="Home-Copy" transform="translate(-464.000000, -872.000000)">
            <g id="Group-42" transform="translate(464.000000, 871.000000)">
                <g id="Group-18" transform="translate(0.000000, 0.361000)">
                    <path d="M144.2194,91.0383 L144.2194,124.0413 L144.2194,124.0433 C144.2194,125.0603 143.6744,126.0023 142.7934,126.5113 L114.2054,143.0193 L114.2054,143.0173 L114.2114,108.3623 L144.2194,91.0363 L144.2194,91.0383 Z M112.1024,104.7153 L82.0934,87.3903 L85.8644,85.2133 L110.6784,70.8833 C111.1214,70.6323 111.6134,70.5063 112.1044,70.5063 C112.5954,70.5063 113.0864,70.6323 113.5304,70.8833 L142.1154,87.3913 L142.1154,87.3913 L142.1174,87.3923 L112.1024,104.7153 Z M109.9944,143.0153 L81.4154,126.5113 C80.5344,126.0023 79.9894,125.0603 79.9894,124.0433 L79.9894,92.8643 L79.9894,91.0303 L109.9984,108.3623 L109.9984,110.7933 L109.9994,110.7933 L109.9984,114.2263 L109.9994,143.0143 L109.9944,143.0113 L109.9944,143.0153 Z M144.9024,84.1343 L115.6334,67.2343 C113.4584,65.9763 110.7504,65.9763 108.5754,67.2343 L79.3064,84.1343 C77.1324,85.3923 75.7784,87.7343 75.7784,90.2503 L75.7784,124.0433 C75.7784,126.5593 77.1324,128.9013 79.3064,130.1593 L108.5754,147.0593 C109.6604,147.6873 110.8824,147.9993 112.1044,147.9993 C113.3264,147.9993 114.5484,147.6873 115.6334,147.0593 L144.9024,130.1593 C147.0764,128.9013 148.4304,126.5593 148.4304,124.0433 L148.4304,90.2503 C148.4304,87.7343 147.0764,85.3923 144.9024,84.1343 L144.9024,84.1343 Z" id="Fill-1" fill="#813CFF"></path>
                    <path d="M76.2692,77.3664 L76.2692,45.1394 L76.3222,45.1704 L76.3222,42.7094 L78.4032,41.5084 L78.3802,41.4954 L106.2812,25.3864 L106.2812,25.4124 L106.3312,25.3834 L106.3312,58.3874 C106.3312,59.4054 105.7862,60.3454 104.9052,60.8554 L76.3172,77.3644 L76.3172,77.3394 L76.2692,77.3664 Z M74.1672,39.0594 L44.1572,21.7374 L72.7402,5.2304 C73.1842,4.9794 73.6752,4.8534 74.1662,4.8534 C74.1742,4.8534 74.1812,4.8564 74.1892,4.8564 C74.6892,4.8524 75.1902,4.9764 75.6382,5.2354 L104.2282,21.7384 L74.2142,39.0614 L74.1882,39.0474 L74.1672,39.0594 Z M72.0582,77.3634 L43.4772,60.8584 C42.5962,60.3494 42.0512,59.4094 42.0512,58.3904 L42.0512,25.3874 L42.1012,25.4154 L42.1012,25.3774 L72.1102,42.7094 L72.1112,77.3604 L72.0582,77.3304 L72.0582,77.3634 Z M106.9642,64.5074 C109.1382,63.2494 110.4922,60.9064 110.4922,58.3904 L110.4922,24.5974 C110.4922,22.0824 109.1382,19.7404 106.9642,18.4814 L77.6942,1.5834 C75.5192,0.3244 72.8122,0.3244 70.6372,1.5834 L41.3682,18.4814 C39.1932,19.7404 37.8392,22.0824 37.8392,24.5974 L37.8392,58.3904 C37.8392,60.9064 39.1932,63.2494 41.3682,64.5074 L70.6372,81.4064 C71.7222,82.0354 72.9442,82.3464 74.1662,82.3464 C75.3882,82.3464 76.6102,82.0354 77.6942,81.4064 L106.9642,64.5074 Z" id="Fill-3" fill="#00EEFF"></path>
                    <g id="Group-7" transform="translate(0.000000, 66.000000)">
                        <mask id="mask-2" fill="white">
                            <use xlink:href="#path-1"></use>
                        </mask>
                        <g id="Clip-6"></g>
                        <path d="M68.4415,58.0412 L68.4415,58.0412 L68.4415,58.0442 C68.4415,59.0622 67.8965,60.0032 67.0155,60.5122 L38.4345,77.0182 L38.4345,77.0142 L38.4275,77.0182 L38.4335,42.3622 L68.4415,25.0362 L68.4415,58.0412 Z M36.3245,38.7152 L6.3155,21.3902 L18.6375,14.2762 L34.9005,4.8842 C35.0535,4.7972 35.2185,4.7452 35.3815,4.6882 C35.4535,4.6632 35.5215,4.6212 35.5955,4.6022 C35.6045,4.5992 35.6145,4.6002 35.6245,4.5982 C35.8545,4.5392 36.0895,4.5072 36.3255,4.5072 L36.3265,4.5072 C36.8175,4.5072 37.3085,4.6332 37.7525,4.8842 L62.8225,19.3622 L66.3395,21.3922 L36.3245,38.7152 Z M34.2215,77.0142 L34.2175,77.0122 L34.2175,77.0172 L5.6365,60.5122 C4.7565,60.0032 4.2115,59.0622 4.2115,58.0442 L4.2115,26.2762 L4.2115,25.0302 L34.2205,42.3622 L34.2205,42.3642 L34.2225,42.3652 L34.2205,54.4932 L34.2215,77.0142 Z M69.1245,18.1352 L39.8545,1.2362 C37.6805,-0.0218 34.9725,-0.0218 32.7975,1.2362 L3.5285,18.1352 C1.3535,19.3942 0.0005,21.7352 0.0005,24.2522 L0.0005,58.0442 C0.0005,60.5602 1.3535,62.9022 3.5285,64.1602 L32.7975,81.0602 C33.8825,81.6882 35.1045,82.0002 36.3265,82.0002 C37.5485,82.0002 38.7705,81.6882 39.8545,81.0602 L69.1245,64.1602 C71.2985,62.9022 72.6525,60.5602 72.6525,58.0442 L72.6525,24.2522 C72.6525,21.7352 71.2985,19.3942 69.1245,18.1352 L69.1245,18.1352 Z" id="Fill-5" fill="#CF0245" mask="url(#mask-2)"></path>
                    </g>
                    <path d="M35.3815,70.6887 C35.4535,70.6637 35.5215,70.6207 35.5955,70.6017 C35.5215,70.6217 35.4535,70.6637 35.3815,70.6887" id="Fill-8" fill="#2A1536"></path>
                    <path d="M35.6241,70.5978 C35.8541,70.5388 36.0891,70.5068 36.3251,70.5068 C36.0891,70.5068 35.8541,70.5388 35.6241,70.5978" id="Fill-10" fill="#2A1536"></path>
                    <polygon id="Fill-12" fill="#2A1536" points="34.2208 108.3644 34.2208 108.3624 4.2108 91.0304 4.2118 92.2764 4.2118 91.0404"></polygon>
                    <polygon id="Fill-14" fill="#2A1536" points="34.2218 143.0139 34.2208 120.4929 34.2178 143.0119"></polygon>
                    <path d="M185.7755,100.0471 C185.7755,101.0661 185.2305,102.0121 184.3495,102.5221 L156.1825,118.7791 C156.1465,118.8041 156.0445,118.8631 155.9065,118.7791 C155.7695,118.7011 155.7695,118.5881 155.7695,118.5401 L155.7695,86.0181 C155.7695,85.4921 155.6965,84.9791 155.5845,84.4771 L185.7755,67.0471 L185.7755,100.0471 Z M153.6575,80.7231 L151.5515,79.5071 L139.0195,72.2711 L124.0675,63.6371 C124.0315,63.6131 123.9295,63.5591 123.9295,63.3981 C123.9295,63.2351 124.0315,63.1761 124.0675,63.1581 L152.2345,46.8941 C153.1155,46.3851 154.2055,46.3851 155.0865,46.8941 L183.6725,63.3961 L155.7695,79.5041 L153.6575,80.7231 Z M186.4525,60.1391 L157.1945,43.2451 C155.0145,41.9871 152.3065,41.9871 150.1265,43.2451 L121.9645,59.5101 C120.5565,60.3181 119.7185,61.7741 119.7185,63.3981 C119.7185,65.0211 120.5565,66.4771 121.9645,67.2851 L150.1265,83.5491 C151.0065,84.0531 151.5575,85.0051 151.5575,86.0181 L151.5575,118.5401 C151.5575,120.1631 152.3965,121.6191 153.7975,122.4281 C154.5045,122.8351 155.2715,123.0391 156.0445,123.0391 C156.8175,123.0391 157.5845,122.8351 158.2915,122.4281 L186.4525,106.1701 C188.6325,104.9111 189.9865,102.5641 189.9865,100.0471 L189.9865,66.2611 C189.9865,63.7451 188.6325,61.3971 186.4525,60.1391 L186.4525,60.1391 Z" id="Fill-16" fill="#FFCE00"></path>
                </g>
                <path d="M239.027,19.8597443 C242.584351,19.8597443 245.638987,20.4494051 248.191,21.6287443 C250.743013,22.8080835 252.985657,24.6737315 254.919,27.2257443 L249.409,32.6197443 C248.403662,30.5317338 247.069675,28.9754161 245.407,27.9507443 C243.744325,26.9260725 241.637013,26.4137443 239.085,26.4137443 C236.764988,26.4137443 234.976673,26.8487399 233.72,27.7187443 C232.463327,28.5887486 231.835,29.7390705 231.835,31.1697443 C231.835,32.4844175 232.472994,33.5284071 233.749,34.3017443 C235.025006,35.0750815 237.32565,35.7517414 240.651,36.3317443 C244.131017,36.9890809 246.895656,37.8010728 248.945,38.7677443 C250.994344,39.7344158 252.492662,40.942737 253.44,42.3927443 C254.387338,43.8427515 254.861,45.6504001 254.861,47.8157443 C254.861,50.1744227 254.194007,52.214069 252.86,53.9347443 C251.525993,55.6554196 249.670012,56.9797396 247.292,57.9077443 C244.913988,58.8357489 242.197682,59.2997443 239.143,59.2997443 C234.928312,59.2997443 231.477347,58.7100835 228.79,57.5307443 C226.102653,56.3514051 223.927675,54.5630896 222.265,52.1657443 L227.021,46.4817443 C228.451674,48.8404227 230.094991,50.4740731 231.951,51.3827443 C233.807009,52.2914155 236.107653,52.7457443 238.853,52.7457443 C241.327679,52.7457443 243.21266,52.3590815 244.508,51.5857443 C245.80334,50.8124071 246.451,49.7104181 246.451,48.2797443 C246.451,47.2357391 245.842006,46.3657478 244.624,45.6697443 C243.405994,44.9737408 241.231016,44.316414 238.099,43.6977443 C234.502982,42.9630739 231.632011,42.0930826 229.486,41.0877443 C227.339989,40.0824059 225.783671,38.845085 224.817,37.3757443 C223.850329,35.9064036 223.367,34.0890884 223.367,31.9237443 C223.367,29.6423995 223.98566,27.5834201 225.223,25.7467443 C226.46034,23.9100684 228.267988,22.4697495 230.646,21.4257443 C233.024012,20.3817391 235.817651,19.8597443 239.027,19.8597443 Z M281.425,56.9217443 C280.496995,57.6564146 279.32734,58.2364088 277.916,58.6617443 C276.50466,59.0870797 275.025674,59.2997443 273.479,59.2997443 C267.021634,59.2997443 263.793,56.3804401 263.793,50.5417443 L263.793,35.6357443 L258.515,35.6357443 L258.515,29.7197443 L263.793,29.7197443 L263.793,23.0497443 L271.739,20.8457443 L271.739,29.7197443 L281.135,29.7197443 L281.135,35.6357443 L271.739,35.6357443 L271.739,49.2657443 C271.739,51.9337576 273.072987,53.2677443 275.741,53.2677443 C277.442342,53.2677443 278.930994,52.7264164 280.207,51.6437443 L281.425,56.9217443 Z M313.499,53.9057443 C314.311004,53.9057443 314.968331,53.8284117 315.471,53.6737443 L314.891,58.4877443 C313.808328,59.0290803 312.551674,59.2997443 311.121,59.2997443 C307.408981,59.2997443 305.18567,57.8497588 304.451,54.9497443 C303.600329,56.3804181 302.285676,57.4630739 300.507,58.1977443 C298.728324,58.9324146 296.621012,59.2997443 294.185,59.2997443 C291.362319,59.2997443 289.158341,58.6617507 287.573,57.3857443 C285.987659,56.1097379 285.195,54.2730896 285.195,51.8757443 C285.195,47.1583874 288.964962,44.1037512 296.505,42.7117443 L303.465,41.3777443 L303.465,39.9857443 C303.465,38.4390699 303.030004,37.2114155 302.16,36.3027443 C301.289996,35.3940731 300.081674,34.9397443 298.535,34.9397443 C296.756324,34.9397443 295.306339,35.3264071 294.185,36.0997443 C293.063661,36.8730815 292.290335,38.1297356 291.865,39.8697443 L285.543,37.2017443 C286.16167,34.6883984 287.553656,32.7164181 289.719,31.2857443 C291.884344,29.8550705 294.706983,29.1397443 298.187,29.1397443 C302.324354,29.1397443 305.552988,30.0387353 307.873,31.8367443 C310.193012,33.6347533 311.353,36.29306 311.353,39.8117443 L311.353,51.7017443 C311.353,52.4750815 311.526998,53.0357425 311.875,53.3837443 C312.223002,53.731746 312.76433,53.9057443 313.499,53.9057443 Z M296.679,53.9057443 C298.380342,53.9057443 299.93666,53.4900818 301.348,52.6587443 C302.75934,51.8274068 303.465,50.6964181 303.465,49.2657443 L303.465,46.2497443 L297.259,47.6417443 C295.944327,47.9510792 294.968003,48.3667417 294.33,48.8887443 C293.691997,49.4107469 293.373,50.1357396 293.373,51.0637443 C293.373,51.9917489 293.662997,52.6974085 294.243,53.1807443 C294.823003,53.66408 295.634995,53.9057443 296.679,53.9057443 Z M348.1192,17.0177443 L348.1192,58.7197443 L341.0432,58.7197443 L340.6952,53.3257443 C339.844529,55.1430867 338.578208,56.5930722 336.8962,57.6757443 C335.214192,58.7584164 333.290544,59.2997443 331.1252,59.2997443 C327.258514,59.2997443 324.223211,57.9754242 322.0192,55.3267443 C319.815189,52.6780644 318.7132,48.9951012 318.7132,44.2777443 C318.7132,39.5217205 319.815189,35.8097576 322.0192,33.1417443 C324.223211,30.4737309 327.258514,29.1397443 331.1252,29.1397443 C333.21321,29.1397443 335.030526,29.6134062 336.5772,30.5607443 C338.123874,31.5080824 339.322529,32.8130693 340.1732,34.4757443 L340.1732,17.0177443 L348.1192,17.0177443 Z M333.4452,53.2097443 C335.53321,53.2097443 337.176527,52.4557518 338.3752,50.9477443 C339.573873,49.4397367 340.1732,47.2937582 340.1732,44.5097443 L340.1732,43.9297443 C340.1732,41.1843972 339.573873,39.0480853 338.3752,37.5207443 C337.176527,35.9934033 335.53321,35.2297443 333.4452,35.2297443 C331.318523,35.2297443 329.655873,36.0030699 328.4572,37.5497443 C327.258527,39.0964187 326.6592,41.3197298 326.6592,44.2197443 C326.6592,47.1197588 327.258527,49.3430699 328.4572,50.8897443 C329.655873,52.4364187 331.318523,53.2097443 333.4452,53.2097443 Z M367.7812,59.2997443 C361.323834,59.2997443 356.838546,57.4437628 354.3252,53.7317443 L358.9652,48.9757443 C359.738537,50.6384193 360.850193,51.8080742 362.3002,52.4847443 C363.750207,53.1614143 365.538523,53.4997443 367.6652,53.4997443 C369.366542,53.4997443 370.681195,53.2677466 371.6092,52.8037443 C372.537205,52.339742 373.0012,51.7017483 373.0012,50.8897443 C373.0012,50.2324077 372.566204,49.6717466 371.6962,49.2077443 C370.826196,48.743742 369.327877,48.2990797 367.2012,47.8737443 C362.754511,46.9844065 359.632209,45.8147515 357.8342,44.3647443 C356.036191,42.914737 355.1372,40.9524233 355.1372,38.4777443 C355.1372,36.8537362 355.639862,35.3264181 356.6452,33.8957443 C357.650538,32.4650705 359.13919,31.3147486 361.1112,30.4447443 C363.08321,29.5747399 365.441853,29.1397443 368.1872,29.1397443 C371.435216,29.1397443 374.064523,29.6327394 376.0752,30.6187443 C378.085877,31.6047492 379.76786,33.161067 381.1212,35.2877443 L376.1912,39.4637443 C375.340529,37.9170699 374.286873,36.7764146 373.0302,36.0417443 C371.773527,35.3070739 370.197876,34.9397443 368.3032,34.9397443 C366.717859,34.9397443 365.451538,35.2104082 364.5042,35.7517443 C363.556862,36.2930803 363.0832,36.9504071 363.0832,37.7237443 C363.0832,38.5357483 363.547195,39.2124082 364.4752,39.7537443 C365.403205,40.2950803 367.046522,40.797742 369.4052,41.2617443 C373.619888,42.1124152 376.606858,43.2240708 378.3662,44.5967443 C380.125542,45.9694178 381.0052,47.8737321 381.0052,50.3097443 C381.0052,53.0164245 379.854878,55.1914027 377.5542,56.8347443 C375.253522,58.4780858 371.995888,59.2997443 367.7812,59.2997443 Z M395.1572,49.4977443 C395.1572,50.8897512 395.360198,51.8564082 395.7662,52.3977443 C396.172202,52.9390803 396.916528,53.2097443 397.9992,53.2097443 C398.656537,53.2097443 399.226864,53.1614114 399.7102,53.0647443 C400.193536,52.9680771 400.763863,52.8037454 401.4212,52.5717443 L400.7252,58.0817443 C400.10653,58.4684129 399.294538,58.7680766 398.2892,58.9807443 C397.283862,59.193412 396.297872,59.2997443 395.3312,59.2997443 C392.508519,59.2997443 390.44954,58.6134178 389.1542,57.2407443 C387.85886,55.8680708 387.2112,53.6737594 387.2112,50.6577443 L387.2112,17.0177443 L395.1572,17.0177443 L395.1572,49.4977443 Z M432.4512,53.9057443 C433.263204,53.9057443 433.920531,53.8284117 434.4232,53.6737443 L433.8432,58.4877443 C432.760528,59.0290803 431.503874,59.2997443 430.0732,59.2997443 C426.361181,59.2997443 424.13787,57.8497588 423.4032,54.9497443 C422.552529,56.3804181 421.237876,57.4630739 419.4592,58.1977443 C417.680524,58.9324146 415.573212,59.2997443 413.1372,59.2997443 C410.314519,59.2997443 408.110541,58.6617507 406.5252,57.3857443 C404.939859,56.1097379 404.1472,54.2730896 404.1472,51.8757443 C404.1472,47.1583874 407.917162,44.1037512 415.4572,42.7117443 L422.4172,41.3777443 L422.4172,39.9857443 C422.4172,38.4390699 421.982204,37.2114155 421.1122,36.3027443 C420.242196,35.3940731 419.033874,34.9397443 417.4872,34.9397443 C415.708524,34.9397443 414.258539,35.3264071 413.1372,36.0997443 C412.015861,36.8730815 411.242535,38.1297356 410.8172,39.8697443 L404.4952,37.2017443 C405.11387,34.6883984 406.505856,32.7164181 408.6712,31.2857443 C410.836544,29.8550705 413.659183,29.1397443 417.1392,29.1397443 C421.276554,29.1397443 424.505188,30.0387353 426.8252,31.8367443 C429.145212,33.6347533 430.3052,36.29306 430.3052,39.8117443 L430.3052,51.7017443 C430.3052,52.4750815 430.479198,53.0357425 430.8272,53.3837443 C431.175202,53.731746 431.71653,53.9057443 432.4512,53.9057443 Z M415.6312,53.9057443 C417.332542,53.9057443 418.88886,53.4900818 420.3002,52.6587443 C421.71154,51.8274068 422.4172,50.6964181 422.4172,49.2657443 L422.4172,46.2497443 L416.2112,47.6417443 C414.896527,47.9510792 413.920203,48.3667417 413.2822,48.8887443 C412.644197,49.4107469 412.3252,50.1357396 412.3252,51.0637443 C412.3252,51.9917489 412.615197,52.6974085 413.1952,53.1807443 C413.775203,53.66408 414.587195,53.9057443 415.6312,53.9057443 Z M456.2892,29.1397443 C460.155886,29.1397443 463.191189,30.4737309 465.3952,33.1417443 C467.599211,35.8097576 468.7012,39.5217205 468.7012,44.2777443 C468.7012,48.9951012 467.599211,52.6780644 465.3952,55.3267443 C463.191189,57.9754242 460.155886,59.2997443 456.2892,59.2997443 C454.007855,59.2997443 452.026208,58.7294167 450.3442,57.5887443 C448.662192,56.4480719 447.395871,54.9110873 446.5452,52.9777443 L446.2552,58.7197443 L439.2372,58.7197443 L439.2372,17.0177443 L447.1832,17.0177443 L447.1832,34.4757443 C448.072538,32.8130693 449.290526,31.5080824 450.8372,30.5607443 C452.383874,29.6134062 454.20119,29.1397443 456.2892,29.1397443 Z M453.9112,53.2097443 C456.076544,53.2097443 457.758527,52.4364187 458.9572,50.8897443 C460.155873,49.3430699 460.7552,47.1197588 460.7552,44.2197443 C460.7552,41.3197298 460.155873,39.0964187 458.9572,37.5497443 C457.758527,36.0030699 456.076544,35.2297443 453.9112,35.2297443 C451.977857,35.2297443 450.411873,35.9064042 449.2132,37.2597443 C448.014527,38.6130844 447.337867,40.5077321 447.1832,42.9437443 L447.1832,45.4957443 C447.337867,47.9704233 448.014527,49.8747376 449.2132,51.2087443 C450.411873,52.542751 451.977857,53.2097443 453.9112,53.2097443 Z" id="Stadslab" fill="#2A1536" fill-rule="nonzero"></path>
                <g id="Group-41" transform="translate(34.000000, 41.361000)" fill="#2A1536">
                    <path d="M205.129,56.9452443 L195.965,56.9452443 L195.965,72.8372443 L191.325,72.8372443 L191.325,34.5572443 L205.825,34.5572443 C209.730353,34.5572443 212.862322,35.5625676 215.221,37.5732443 C217.579678,39.583921 218.759,42.3098937 218.759,45.7512443 C218.759,48.4579245 218.005008,50.739235 216.497,52.5952443 C214.988992,54.4512536 212.920346,55.7272408 210.291,56.4232443 L221.079,72.8372443 L215.569,72.8372443 L205.129,56.9452443 Z M195.965,52.5952443 L205.767,52.5952443 C211.18036,52.5952443 213.887,50.3139338 213.887,45.7512443 C213.887,41.1885548 211.18036,38.9072443 205.767,38.9072443 L195.965,38.9072443 L195.965,52.5952443 Z M239.291,43.2572443 C243.660355,43.2572443 247.091988,44.5912309 249.586,47.2592443 C252.080012,49.9272576 253.327,53.6198874 253.327,58.3372443 C253.327,63.0546012 252.080012,66.7472309 249.586,69.4152443 C247.091988,72.0832576 243.660355,73.4172443 239.291,73.4172443 C234.921645,73.4172443 231.490012,72.0832576 228.996,69.4152443 C226.501988,66.7472309 225.255,63.0546012 225.255,58.3372443 C225.255,53.6198874 226.501988,49.9272576 228.996,47.2592443 C231.490012,44.5912309 234.921645,43.2572443 239.291,43.2572443 Z M239.291,47.2592443 C236.352319,47.2592443 234.051675,48.2452344 232.389,50.2172443 C230.726325,52.1892541 229.895,54.8958937 229.895,58.3372443 C229.895,61.7785948 230.726325,64.4852344 232.389,66.4572443 C234.051675,68.4292541 236.352319,69.4152443 239.291,69.4152443 C242.229681,69.4152443 244.530325,68.4292541 246.193,66.4572443 C247.855675,64.4852344 248.687,61.7785948 248.687,58.3372443 C248.687,54.8958937 247.855675,52.1892541 246.193,50.2172443 C244.530325,48.2452344 242.229681,47.2592443 239.291,47.2592443 Z M279.021,70.8072443 C277.087657,72.547253 274.593682,73.4172443 271.539,73.4172443 C269.180322,73.4172443 267.256674,72.7792507 265.768,71.5032443 C264.279326,70.2272379 263.515667,68.2745908 263.477,65.6452443 L263.477,47.8392443 L257.677,47.8392443 L257.677,43.8372443 L263.477,43.8372443 L263.477,36.8772443 L268.117,35.6012443 L268.117,43.8372443 L278.847,43.8372443 L278.847,47.8392443 L268.117,47.8392443 L268.117,64.8332443 C268.117,66.2252512 268.513329,67.2789074 269.306,67.9942443 C270.098671,68.7095812 271.152327,69.0672443 272.467,69.0672443 C274.323009,69.0672443 275.966326,68.3519181 277.397,66.9212443 L279.021,70.8072443 Z M295.899,70.8072443 C293.965657,72.547253 291.471682,73.4172443 288.417,73.4172443 C286.058322,73.4172443 284.134674,72.7792507 282.646,71.5032443 C281.157326,70.2272379 280.393667,68.2745908 280.355,65.6452443 L280.355,47.8392443 L274.555,47.8392443 L274.555,43.8372443 L280.355,43.8372443 L280.355,36.8772443 L284.995,35.6012443 L284.995,43.8372443 L295.725,43.8372443 L295.725,47.8392443 L284.995,47.8392443 L284.995,64.8332443 C284.995,66.2252512 285.391329,67.2789074 286.184,67.9942443 C286.976671,68.7095812 288.030327,69.0672443 289.345,69.0672443 C291.201009,69.0672443 292.844326,68.3519181 294.275,66.9212443 L295.899,70.8072443 Z M327.335,56.8292443 C327.335,57.9119164 327.257667,58.9945722 327.103,60.0772443 L305.237,60.0772443 C305.507668,63.0159256 306.483992,65.2972362 308.166,66.9212443 C309.848008,68.5452524 312.022987,69.3572443 314.691,69.3572443 C316.817677,69.3572443 318.58666,68.9899146 319.998,68.2552443 C321.40934,67.5205739 322.366331,66.4572512 322.869,65.0652443 L326.755,67.0952443 C325.594994,69.1445879 324.048343,70.7105722 322.115,71.7932443 C320.181657,72.8759164 317.707015,73.4172443 314.691,73.4172443 C310.321645,73.4172443 306.890012,72.0832576 304.396,69.4152443 C301.901988,66.7472309 300.655,63.0546012 300.655,58.3372443 C300.655,53.6198874 301.843988,49.9272576 304.222,47.2592443 C306.600012,44.5912309 309.973645,43.2572443 314.343,43.2572443 C317.04968,43.2572443 319.38899,43.8565716 321.361,45.0552443 C323.33301,46.2539169 324.821662,47.8779007 325.827,49.9272443 C326.832338,51.9765879 327.335,54.2772315 327.335,56.8292443 Z M314.343,47.3172443 C311.790987,47.3172443 309.732008,48.0712367 308.166,49.5792443 C306.599992,51.0872518 305.643002,53.2138972 305.295,55.9592443 L322.869,55.9592443 C322.559665,53.2525641 321.670341,51.1355853 320.201,49.6082443 C318.731659,48.0809033 316.779012,47.3172443 314.343,47.3172443 Z M349.839,43.2572443 C351.231007,43.2572443 352.29433,43.4505757 353.029,43.8372443 L352.101,48.3612443 C351.172995,47.8585751 349.955008,47.6072443 348.447,47.6072443 C347.20966,47.6072443 346.001339,47.9649074 344.822,48.6802443 C343.642661,49.3955812 342.676004,50.478237 341.922,51.9282443 C341.167996,53.3782515 340.791,55.1279007 340.791,57.1772443 L340.791,72.8372443 L336.151,72.8372443 L336.151,43.8372443 L339.921,43.8372443 L340.559,48.5932443 C342.183008,45.0358932 345.276311,43.2572443 349.839,43.2572443 Z M383.711,30.4972443 L383.711,72.8372443 L379.651,72.8372443 L379.361,67.7912443 C378.510329,69.4925861 377.205342,70.8555725 375.446,71.8802443 C373.686658,72.9049161 371.685678,73.4172443 369.443,73.4172443 C365.38298,73.4172443 362.164012,72.0735911 359.786,69.3862443 C357.407988,66.6988975 356.219,63.0159343 356.219,58.3372443 C356.219,53.6585542 357.407988,49.9755911 359.786,47.2882443 C362.164012,44.6008975 365.38298,43.2572443 369.443,43.2572443 C371.569677,43.2572443 373.473992,43.7212396 375.156,44.6492443 C376.838008,45.5772489 378.142995,46.8145699 379.071,48.3612443 L379.071,30.4972443 L383.711,30.4972443 Z M369.965,69.3572443 C372.749014,69.3572443 374.962658,68.3905873 376.606,66.4572443 C378.249342,64.5239013 379.071,61.9332605 379.071,58.6852443 L379.071,57.9892443 C379.071,54.741228 378.249342,52.1505873 376.606,50.2172443 C374.962658,48.2839013 372.749014,47.3172443 369.965,47.3172443 C367.142319,47.3172443 364.919008,48.312901 363.295,50.3042443 C361.670992,52.2955876 360.859,54.9732275 360.859,58.3372443 C360.859,61.7012611 361.670992,64.378901 363.295,66.3702443 C364.919008,68.3615876 367.142319,69.3572443 369.965,69.3572443 Z M418.279,69.4732443 C419.052337,69.4732443 419.825663,69.3765786 420.599,69.1832443 L420.309,72.8372443 C419.226328,73.2239129 418.06634,73.4172443 416.829,73.4172443 C415.320992,73.4172443 414.132004,73.0885809 413.262,72.4312443 C412.391996,71.7739077 411.841001,70.6719187 411.609,69.1252443 C410.719662,70.4785844 409.414675,71.5322405 407.694,72.2862443 C405.973325,73.0402481 404.165676,73.4172443 402.271,73.4172443 C399.409652,73.4172443 397.051009,72.750251 395.195,71.4162443 C393.338991,70.0822376 392.411,68.1585902 392.411,65.6452443 C392.411,63.4412333 393.377657,61.536919 395.311,59.9322443 C397.244343,58.3275696 400.047648,57.215914 403.721,56.5972443 L411.435,55.3212443 L411.435,53.6972443 C411.435,51.7639013 410.835673,50.2172501 409.637,49.0572443 C408.438327,47.8972385 406.775677,47.3172443 404.649,47.3172443 C402.715657,47.3172443 401.04334,47.7812396 399.632,48.7092443 C398.22066,49.6372489 397.128337,51.0099019 396.355,52.8272443 L392.933,50.3332443 C393.706337,48.1679001 395.146656,46.4472507 397.254,45.1712443 C399.361344,43.8952379 401.826319,43.2572443 404.649,43.2572443 C408.090351,43.2572443 410.85499,44.0885693 412.943,45.7512443 C415.03101,47.4139193 416.075,49.869228 416.075,53.1172443 L416.075,67.3852443 C416.075,68.0812478 416.248998,68.6032425 416.597,68.9512443 C416.945002,69.299246 417.505663,69.4732443 418.279,69.4732443 Z M402.503,69.3572443 C404.939012,69.3572443 407.036658,68.7772501 408.796,67.6172443 C410.555342,66.4572385 411.435,64.9492536 411.435,63.0932443 L411.435,59.0912443 L404.939,60.3092443 C402.34832,60.7732466 400.415006,61.4402399 399.139,62.3102443 C397.862994,63.1802486 397.225,64.2919042 397.225,65.6452443 C397.225,66.8439169 397.688995,67.7622411 398.617,68.4002443 C399.545005,69.0382475 400.840325,69.3572443 402.503,69.3572443 Z M461.025,43.2572443 C462.958343,43.2572443 464.765992,43.6535737 466.448,44.4462443 C468.130008,45.2389149 469.492995,46.4665693 470.537,48.1292443 C471.581005,49.7919193 472.103,51.8412321 472.103,54.2772443 L472.103,72.8372443 L467.463,72.8372443 L467.463,54.7412443 C467.463,52.2278984 466.834673,50.3622504 465.578,49.1442443 C464.321327,47.9262382 462.668344,47.3172443 460.619,47.3172443 C459.072326,47.3172443 457.65134,47.6942405 456.356,48.4482443 C455.06066,49.2022481 454.016671,50.304237 453.224,51.7542443 C452.431329,53.2042515 452.035,54.9345676 452.035,56.9452443 L452.035,72.8372443 L447.395,72.8372443 L447.395,54.7412443 C447.395,52.2278984 446.766673,50.3622504 445.51,49.1442443 C444.253327,47.9262382 442.600344,47.3172443 440.551,47.3172443 C439.158993,47.3172443 437.805673,47.6749074 436.491,48.3902443 C435.176327,49.1055812 434.093671,50.2172367 433.243,51.7252443 C432.392329,53.2332518 431.967,55.1085664 431.967,57.3512443 L431.967,72.8372443 L427.327,72.8372443 L427.327,43.8372443 L431.387,43.8372443 L431.677,48.3612443 C432.682338,46.6599024 434.006658,45.3839152 435.65,44.5332443 C437.293342,43.6825734 439.062324,43.2572443 440.957,43.2572443 C443.083677,43.2572443 445.045991,43.7405728 446.844,44.7072443 C448.642009,45.6739158 450.004995,47.085235 450.933,48.9412443 C451.783671,47.085235 453.175657,45.6739158 455.109,44.7072443 C457.042343,43.7405728 459.014323,43.2572443 461.025,43.2572443 Z" id="Rotterdam" fill-rule="nonzero"></path>
                    <path d="M16.9532,11.4641 L12.5262,14.0221 C11.5202,14.6031 11.1722,15.8911 11.7532,16.8971 C12.1432,17.5741 12.8492,17.9511 13.5802,17.9511 C13.9402,17.9511 14.2992,17.8611 14.6292,17.6701 L19.0622,15.1111 C20.0682,14.5301 20.4162,13.2421 19.8342,12.2361 C19.2472,11.2301 17.9592,10.8831 16.9532,11.4641" id="Fill-20"></path>
                    <path d="M28.5616,4.7648 L23.0806,7.9278 C22.0736,8.5088 21.7266,9.7968 22.3076,10.8038 C22.6966,11.4808 23.4036,11.8578 24.1346,11.8578 C24.4946,11.8578 24.8536,11.7678 25.1836,11.5768 L30.6646,8.4128 C31.6706,7.8318 32.0186,6.5438 31.4366,5.5318 C30.8556,4.5258 29.5676,4.1838 28.5616,4.7648" id="Fill-21"></path>
                    <path d="M67.8087,14.0217 L63.3817,11.4637 C62.3747,10.8827 61.0867,11.2297 60.4997,12.2367 C59.9187,13.2427 60.2667,14.5307 61.2727,15.1117 L65.7057,17.6697 C66.0357,17.8617 66.3947,17.9517 66.7537,17.9517 C67.4787,17.9517 68.1917,17.5747 68.5807,16.8967 C69.1627,15.8907 68.8147,14.6027 67.8087,14.0217" id="Fill-22"></path>
                    <path d="M57.2545,7.9279 L51.7735,4.7649 C50.7665,4.1839 49.4785,4.5259 48.8975,5.5319 C48.3165,6.5439 48.6645,7.8319 49.6705,8.4129 L55.1515,11.5759 C55.4815,11.7679 55.8405,11.8579 56.2005,11.8579 C56.9245,11.8579 57.6375,11.4809 58.0265,10.8039 C58.6085,9.7969 58.2605,8.5089 57.2545,7.9279" id="Fill-23"></path>
                    <path d="M78.1017,42.6672 C79.2637,42.6672 80.2107,41.7272 80.2107,40.5592 L80.2107,35.4482 C80.2107,34.2802 79.2637,33.3402 78.1017,33.3402 C76.9397,33.3402 75.9937,34.2802 75.9937,35.4482 L75.9937,40.5592 C75.9937,41.7272 76.9397,42.6672 78.1017,42.6672" id="Fill-24"></path>
                    <path d="M78.1017,56.0666 C79.2637,56.0666 80.2107,55.1266 80.2107,53.9586 L80.2107,47.6316 C80.2107,46.4696 79.2637,45.5296 78.1017,45.5296 C76.9397,45.5296 75.9937,46.4696 75.9937,47.6316 L75.9937,53.9586 C75.9937,55.1266 76.9397,56.0666 78.1017,56.0666" id="Fill-25"></path>
                    <path d="M54.8878,77.1174 L50.4608,79.6764 C49.4538,80.2574 49.1068,81.5454 49.6878,82.5514 C50.0768,83.2274 50.7838,83.6054 51.5148,83.6054 C51.8738,83.6054 52.2338,83.5154 52.5628,83.3234 L56.9958,80.7654 C58.0028,80.1844 58.3498,78.8964 57.7688,77.8904 C57.1818,76.8844 55.8938,76.5364 54.8878,77.1174" id="Fill-26"></path>
                    <path d="M66.4957,70.4191 L61.0147,73.5821 C60.0087,74.1631 59.6607,75.4511 60.2417,76.4571 C60.6307,77.1341 61.3437,77.5121 62.0687,77.5121 C62.4287,77.5121 62.7877,77.4221 63.1177,77.2311 L68.5987,74.0671 C69.6047,73.4861 69.9527,72.1981 69.3707,71.1861 C68.7897,70.1801 67.5017,69.8381 66.4957,70.4191" id="Fill-27"></path>
                    <path d="M80.2106,62.4973 L80.2106,61.0353 C80.2106,59.8673 79.2636,58.9273 78.1016,58.9273 C76.9396,58.9273 75.9936,59.8673 75.9936,61.0353 L75.9936,62.4923 L78.1026,63.7153 L80.2106,62.4973 Z" id="Fill-28"></path>
                    <path d="M73.8917,66.1467 L72.6207,66.8817 C71.6137,67.4627 71.2667,68.7507 71.8477,69.7567 C72.2367,70.4337 72.9437,70.8117 73.6747,70.8117 C74.0337,70.8117 74.3927,70.7217 74.7227,70.5297 L75.9987,69.7927 L75.9987,67.3627 L73.8917,66.1467 Z" id="Fill-29"></path>
                    <path d="M44.5948,5.1584 C45.3198,5.1584 46.0318,4.7804 46.4218,4.1034 C47.0028,3.0964 46.6558,1.8094 45.6488,1.2284 L44.4028,0.5084 L42.3228,1.7094 L42.3228,4.1704 L43.5468,4.8764 C43.8758,5.0684 44.2358,5.1584 44.5948,5.1584" id="Fill-30"></path>
                    <path d="M38.11,1.7092 L35.955,0.4952 L34.686,1.2292 C33.679,1.8102 33.332,3.0972 33.913,4.1042 C34.302,4.7802 35.009,5.1582 35.74,5.1582 C36.1,5.1582 36.459,5.0682 36.788,4.8762 L38.058,4.1442 L38.11,1.7092 Z" id="Fill-31"></path>
                    <path d="M2.3278,42.6662 C3.4898,42.6662 4.4358,41.7262 4.4358,40.5582 L4.4358,35.4472 C4.4358,34.2792 3.4898,33.3392 2.3278,33.3392 C1.1648,33.3392 0.2188,34.2792 0.2188,35.4472 L0.2188,40.5582 C0.2188,41.7262 1.1648,42.6662 2.3278,42.6662" id="Fill-32"></path>
                    <path d="M2.3278,56.0666 C3.4898,56.0666 4.4358,55.1266 4.4358,53.9586 L4.4358,47.6316 C4.4358,46.4696 3.4898,45.5296 2.3278,45.5296 C1.1648,45.5296 0.2188,46.4696 0.2188,47.6316 L0.2188,53.9586 C0.2188,55.1266 1.1648,56.0666 2.3278,56.0666" id="Fill-33"></path>
                    <path d="M29.9689,79.675 L25.5419,77.117 C24.5349,76.536 23.2479,76.883 22.6599,77.89 C22.0789,78.897 22.4269,80.184 23.4329,80.765 L27.8659,83.323 C28.1959,83.515 28.5549,83.605 28.9149,83.605 C29.6389,83.605 30.3519,83.228 30.7419,82.55 C31.3229,81.544 30.9749,80.256 29.9689,79.675" id="Fill-34"></path>
                    <path d="M19.4142,73.5822 L13.9332,70.4192 C12.9262,69.8382 11.6392,70.1802 11.0582,71.1862 C10.4762,72.1982 10.8242,73.4862 11.8302,74.0672 L17.3112,77.2302 C17.6412,77.4222 18.0002,77.5122 18.3602,77.5122 C19.0842,77.5122 19.7972,77.1342 20.1872,76.4572 C20.7682,75.4512 20.4202,74.1632 19.4142,73.5822" id="Fill-35"></path>
                    <path d="M4.4347,69.7961 L5.7067,70.5291 C6.0367,70.7221 6.3957,70.8121 6.7547,70.8121 C7.4797,70.8121 8.1927,70.4341 8.5817,69.7571 C9.1637,68.7511 8.8157,67.4631 7.8097,66.8821 L6.5397,66.1491 L4.4337,67.3621 L4.4347,69.7961 Z" id="Fill-36"></path>
                    <path d="M4.4362,62.4953 L4.4362,61.0353 C4.4362,59.8663 3.4902,58.9263 2.3282,58.9263 C1.1652,58.9263 0.2192,59.8663 0.2192,61.0353 L0.2192,62.4953 L2.3242,63.7153 L4.4362,62.4953 Z" id="Fill-37"></path>
                    <path d="M119.6603,18.674 C120.8223,18.674 121.7693,17.734 121.7693,16.565 L121.7693,11.455 C121.7693,10.287 120.8223,9.347 119.6603,9.347 C118.4983,9.347 117.5523,10.287 117.5523,11.455 L117.5523,16.565 C117.5523,17.734 118.4983,18.674 119.6603,18.674" id="Fill-38"></path>
                    <path d="M119.6603,32.0734 C120.8223,32.0734 121.7693,31.1334 121.7693,29.9654 L121.7693,23.6384 C121.7693,22.4764 120.8223,21.5364 119.6603,21.5364 C118.4983,21.5364 117.5523,22.4764 117.5523,23.6384 L117.5523,29.9654 C117.5523,31.1334 118.4983,32.0734 119.6603,32.0734" id="Fill-39"></path>
                    <path d="M121.7692,37.0422 C121.7692,35.8742 120.8222,34.9342 119.6602,34.9342 C118.4982,34.9342 117.5522,35.8742 117.5522,37.0422 L117.5522,38.5072 L119.6572,39.7232 L121.7692,38.5042 L121.7692,37.0422 Z" id="Fill-40"></path>
                </g>
            </g>
        </g>
    </g>
</svg>